<mxfile host="app.diagrams.net" agent="Mozilla/5.0 (Windows NT 10.0; Win64; x64) AppleWebKit/537.36 (KHTML, like Gecko) Chrome/139.0.0.0 Safari/537.36" version="28.1.2">
  <diagram name="Page-1" id="K2gSG0goQapkKrTSdMNb">
    <mxGraphModel dx="719" dy="388" grid="1" gridSize="10" guides="1" tooltips="1" connect="1" arrows="1" fold="1" page="1" pageScale="1" pageWidth="850" pageHeight="1100" math="0" shadow="0">
      <root>
        <mxCell id="0" />
        <mxCell id="1" parent="0" />
        <mxCell id="rAbBRgUYJY3RHqX02n4J-1" value="Admin" style="swimlane;whiteSpace=wrap" parent="1" vertex="1">
          <mxGeometry x="330" y="180" width="280" height="630" as="geometry" />
        </mxCell>
        <mxCell id="rAbBRgUYJY3RHqX02n4J-9" style="edgeStyle=orthogonalEdgeStyle;rounded=0;orthogonalLoop=1;jettySize=auto;html=1;entryX=0.5;entryY=0;entryDx=0;entryDy=0;" parent="rAbBRgUYJY3RHqX02n4J-1" source="rAbBRgUYJY3RHqX02n4J-10" target="rAbBRgUYJY3RHqX02n4J-12" edge="1">
          <mxGeometry relative="1" as="geometry" />
        </mxCell>
        <mxCell id="rAbBRgUYJY3RHqX02n4J-10" value="" style="ellipse;shape=startState;fillColor=#000000;strokeColor=#ff0000;" parent="rAbBRgUYJY3RHqX02n4J-1" vertex="1">
          <mxGeometry x="125" y="30" width="30" height="30" as="geometry" />
        </mxCell>
        <mxCell id="rAbBRgUYJY3RHqX02n4J-12" value="Login ke aplikasi" style="rounded=0;whiteSpace=wrap;html=1;" parent="rAbBRgUYJY3RHqX02n4J-1" vertex="1">
          <mxGeometry x="75.25" y="80" width="129.5" height="60" as="geometry" />
        </mxCell>
        <mxCell id="_ryPDpQHPeJzNiAf3xGt-2" style="edgeStyle=orthogonalEdgeStyle;rounded=0;orthogonalLoop=1;jettySize=auto;html=1;entryX=0.5;entryY=0;entryDx=0;entryDy=0;" edge="1" parent="rAbBRgUYJY3RHqX02n4J-1" source="rAbBRgUYJY3RHqX02n4J-14" target="_ryPDpQHPeJzNiAf3xGt-1">
          <mxGeometry relative="1" as="geometry" />
        </mxCell>
        <mxCell id="rAbBRgUYJY3RHqX02n4J-14" value="Memilih Teknisi yang akan dinilai" style="rounded=0;whiteSpace=wrap;html=1;" parent="rAbBRgUYJY3RHqX02n4J-1" vertex="1">
          <mxGeometry x="75" y="160" width="129.5" height="60" as="geometry" />
        </mxCell>
        <mxCell id="_ryPDpQHPeJzNiAf3xGt-1" value="Input data kerusakan, jumlah kerusakan, waktu penyelesaian" style="rounded=0;whiteSpace=wrap;html=1;" vertex="1" parent="rAbBRgUYJY3RHqX02n4J-1">
          <mxGeometry x="75" y="240" width="129.5" height="60" as="geometry" />
        </mxCell>
        <mxCell id="_ryPDpQHPeJzNiAf3xGt-24" style="edgeStyle=orthogonalEdgeStyle;rounded=0;orthogonalLoop=1;jettySize=auto;html=1;entryX=0.5;entryY=0;entryDx=0;entryDy=0;" edge="1" parent="rAbBRgUYJY3RHqX02n4J-1" source="_ryPDpQHPeJzNiAf3xGt-21" target="_ryPDpQHPeJzNiAf3xGt-23">
          <mxGeometry relative="1" as="geometry" />
        </mxCell>
        <mxCell id="_ryPDpQHPeJzNiAf3xGt-21" value="Pilih teknisi sesuai rekomendasi" style="rounded=0;whiteSpace=wrap;html=1;" vertex="1" parent="rAbBRgUYJY3RHqX02n4J-1">
          <mxGeometry x="75" y="420" width="129.5" height="60" as="geometry" />
        </mxCell>
        <mxCell id="_ryPDpQHPeJzNiAf3xGt-25" style="edgeStyle=orthogonalEdgeStyle;rounded=0;orthogonalLoop=1;jettySize=auto;html=1;entryX=0.5;entryY=0;entryDx=0;entryDy=0;" edge="1" parent="rAbBRgUYJY3RHqX02n4J-1" source="_ryPDpQHPeJzNiAf3xGt-23" target="rAbBRgUYJY3RHqX02n4J-20">
          <mxGeometry relative="1" as="geometry" />
        </mxCell>
        <mxCell id="_ryPDpQHPeJzNiAf3xGt-23" value="Teknisi menangani kendaraan" style="rounded=0;whiteSpace=wrap;html=1;" vertex="1" parent="rAbBRgUYJY3RHqX02n4J-1">
          <mxGeometry x="75.25" y="500" width="129.5" height="60" as="geometry" />
        </mxCell>
        <mxCell id="rAbBRgUYJY3RHqX02n4J-20" value="" style="ellipse;html=1;shape=endState;fillColor=#000000;strokeColor=#ff0000;" parent="rAbBRgUYJY3RHqX02n4J-1" vertex="1">
          <mxGeometry x="124.75" y="590" width="30" height="30" as="geometry" />
        </mxCell>
        <mxCell id="rAbBRgUYJY3RHqX02n4J-8" value="Sistem" style="swimlane;whiteSpace=wrap" parent="1" vertex="1">
          <mxGeometry x="610" y="180" width="280" height="630" as="geometry" />
        </mxCell>
        <mxCell id="_ryPDpQHPeJzNiAf3xGt-5" value="Menampilkan Dashboard" style="rounded=0;whiteSpace=wrap;html=1;" vertex="1" parent="rAbBRgUYJY3RHqX02n4J-8">
          <mxGeometry x="100" y="80" width="129.5" height="60" as="geometry" />
        </mxCell>
        <mxCell id="_ryPDpQHPeJzNiAf3xGt-18" style="edgeStyle=orthogonalEdgeStyle;rounded=0;orthogonalLoop=1;jettySize=auto;html=1;entryX=0.5;entryY=0;entryDx=0;entryDy=0;" edge="1" parent="rAbBRgUYJY3RHqX02n4J-8" source="_ryPDpQHPeJzNiAf3xGt-15" target="_ryPDpQHPeJzNiAf3xGt-17">
          <mxGeometry relative="1" as="geometry" />
        </mxCell>
        <mxCell id="_ryPDpQHPeJzNiAf3xGt-15" value="Proses data dengan Fuzzy Tsukamoto&lt;div&gt;(fuzzifikasi, inferensi, defuzzifikasi)&lt;/div&gt;" style="rounded=0;whiteSpace=wrap;html=1;" vertex="1" parent="rAbBRgUYJY3RHqX02n4J-8">
          <mxGeometry x="100" y="240" width="129.5" height="60" as="geometry" />
        </mxCell>
        <mxCell id="_ryPDpQHPeJzNiAf3xGt-20" style="edgeStyle=orthogonalEdgeStyle;rounded=0;orthogonalLoop=1;jettySize=auto;html=1;entryX=0.5;entryY=0;entryDx=0;entryDy=0;" edge="1" parent="rAbBRgUYJY3RHqX02n4J-8" source="_ryPDpQHPeJzNiAf3xGt-17" target="_ryPDpQHPeJzNiAf3xGt-19">
          <mxGeometry relative="1" as="geometry" />
        </mxCell>
        <mxCell id="_ryPDpQHPeJzNiAf3xGt-17" value="Simpan hasil ke database" style="rounded=0;whiteSpace=wrap;html=1;" vertex="1" parent="rAbBRgUYJY3RHqX02n4J-8">
          <mxGeometry x="100" y="330" width="129.5" height="60" as="geometry" />
        </mxCell>
        <mxCell id="_ryPDpQHPeJzNiAf3xGt-19" value="Tampilkan hasil&lt;div&gt;rekomendasi&amp;nbsp;&lt;/div&gt;&lt;div&gt;peringkat teknisi&lt;/div&gt;" style="rounded=0;whiteSpace=wrap;html=1;" vertex="1" parent="rAbBRgUYJY3RHqX02n4J-8">
          <mxGeometry x="100" y="420" width="129.5" height="60" as="geometry" />
        </mxCell>
        <mxCell id="_ryPDpQHPeJzNiAf3xGt-6" style="edgeStyle=orthogonalEdgeStyle;rounded=0;orthogonalLoop=1;jettySize=auto;html=1;" edge="1" parent="1" source="rAbBRgUYJY3RHqX02n4J-12" target="_ryPDpQHPeJzNiAf3xGt-5">
          <mxGeometry relative="1" as="geometry" />
        </mxCell>
        <mxCell id="_ryPDpQHPeJzNiAf3xGt-7" style="edgeStyle=orthogonalEdgeStyle;rounded=0;orthogonalLoop=1;jettySize=auto;html=1;entryX=1;entryY=0.5;entryDx=0;entryDy=0;exitX=0.5;exitY=1;exitDx=0;exitDy=0;" edge="1" parent="1" source="_ryPDpQHPeJzNiAf3xGt-5" target="rAbBRgUYJY3RHqX02n4J-14">
          <mxGeometry relative="1" as="geometry" />
        </mxCell>
        <mxCell id="_ryPDpQHPeJzNiAf3xGt-16" style="edgeStyle=orthogonalEdgeStyle;rounded=0;orthogonalLoop=1;jettySize=auto;html=1;" edge="1" parent="1" source="_ryPDpQHPeJzNiAf3xGt-1" target="_ryPDpQHPeJzNiAf3xGt-15">
          <mxGeometry relative="1" as="geometry" />
        </mxCell>
        <mxCell id="_ryPDpQHPeJzNiAf3xGt-22" style="edgeStyle=orthogonalEdgeStyle;rounded=0;orthogonalLoop=1;jettySize=auto;html=1;entryX=1;entryY=0.5;entryDx=0;entryDy=0;" edge="1" parent="1" source="_ryPDpQHPeJzNiAf3xGt-19" target="_ryPDpQHPeJzNiAf3xGt-21">
          <mxGeometry relative="1" as="geometry" />
        </mxCell>
      </root>
    </mxGraphModel>
  </diagram>
</mxfile>
